<?xml version="1.0" encoding="UTF-8" standalone="no"?>
<!DOCTYPE svg PUBLIC "-//W3C//DTD SVG 1.1//EN" "http://www.w3.org/Graphics/SVG/1.1/DTD/svg11.dtd">
<svg width="100%" height="100%" viewBox="0 0 1749 1241" version="1.1" xmlns="http://www.w3.org/2000/svg" xmlns:xlink="http://www.w3.org/1999/xlink" xml:space="preserve" xmlns:serif="http://www.serif.com/" style="fill-rule:evenodd;clip-rule:evenodd;stroke-linecap:round;stroke-linejoin:round;stroke-miterlimit:1.5;">
    <g transform="matrix(1.36538,0,-0.561893,0.427273,224.613,243.611)">
        <rect x="151" y="476" width="110" height="110" style="fill:white;stroke:black;stroke-width:1.55px;"/>
    </g>
    <g transform="matrix(1,0,0,1,-68.4843,-49.0069)">
        <g transform="matrix(0.909871,0,0,0.934426,-71.3605,219.316)">
            <rect x="695" y="123" width="233" height="396.5" style="fill:rgb(146,146,146);stroke:black;stroke-width:1.08px;"/>
        </g>
        <path d="M610,485L729,620.079" style="fill:none;stroke:black;stroke-width:1px;"/>
        <g transform="matrix(-1,0,0,1,1339,-66.0787)">
            <path d="M610,485L729,620.079" style="fill:none;stroke:black;stroke-width:1px;"/>
        </g>
        <ellipse cx="610" cy="519.5" rx="10" ry="34.5" style="fill:white;stroke:black;stroke-width:1px;"/>
        <g transform="matrix(1,0,0,4.01449,119,-1566.03)">
            <ellipse cx="610" cy="519.5" rx="10" ry="34.5" style="fill:white;stroke:black;stroke-width:0.34px;"/>
        </g>
    </g>
    <text x="586.274px" y="703.383px" style="font-family:'ArialMT', 'Arial', sans-serif;font-size:50px;">2</text>
    <g transform="matrix(1.1083,0,0,1,-90.2431,-49.0069)">
        <path d="M200.904,519.5L561,519.5" style="fill:none;stroke:black;stroke-width:0.95px;"/>
    </g>
    <g transform="matrix(1,0,0,1,-68.4843,-49.0069)">
        <circle cx="1173" cy="519.5" r="143.5" style="fill:rgb(146,146,146);stroke:black;stroke-width:1px;"/>
    </g>
    <g transform="matrix(0.966055,-0.258335,0.258335,0.966055,-162.872,271.654)">
        <rect x="1129.27" y="382.798" width="87.47" height="273.405" style="fill:white;stroke:black;stroke-width:1px;"/>
    </g>
    <g transform="matrix(1,0,0,1,-68.4843,-49.0069)">
        <path d="M729,418.921L1415,418.921" style="fill:none;stroke:black;stroke-width:1px;"/>
    </g>
    <g transform="matrix(1,0,0,1,-68.4843,-49.0069)">
        <path d="M729,620.079L1415,620.079" style="fill:none;stroke:black;stroke-width:1px;"/>
    </g>
    <g transform="matrix(0.258819,0.965926,-0.916733,0.245638,1198.58,-883.769)">
        <path d="M1191.38,418.921L1191.38,174.982" style="fill:none;stroke:black;stroke-width:1.03px;"/>
    </g>
    <g transform="matrix(0.258819,0.965926,-0.696099,0.186519,1159.97,-657.746)">
        <path d="M1191.38,418.921L1191.38,174.982" style="fill:none;stroke:black;stroke-width:1.15px;"/>
    </g>
    <g transform="matrix(1,0,0,1,-68.4843,-49.0069)">
        <path d="M1415,418.921L1415,620.079L1550,519.5L1415,418.921Z" style="fill:none;stroke:black;stroke-width:1px;"/>
    </g>
    <g transform="matrix(1,0,0,1.07219,-68.4843,-139.168)">
        <path d="M1415,418.921L1415,620.079L1550,519.5L1415,418.921Z" style="fill:none;stroke:black;stroke-width:0.96px;"/>
    </g>
    <g transform="matrix(0.684716,0,0,0.684716,469.506,156.156)">
        <path d="M1545.5,328.249L1545.5,436.088L1478,382.168L1545.5,328.249Z" style="fill:none;stroke:black;stroke-width:1.46px;"/>
    </g>
    <g transform="matrix(1,0,0,1.10928,-68.4843,-121.46)">
        <ellipse cx="1415" cy="496" rx="16" ry="167" style="fill:white;stroke:black;stroke-width:0.95px;"/>
    </g>
    <g transform="matrix(1,0,0,1,3.51575,35.6644)">
        <g transform="matrix(1,-0,-0,1,-3.51575,-35.6644)">
            <path d="M960.516,946.414L948.016,940.164L960.516,933.914L960.516,946.414Z"/>
            <path d="M1587.13,508.533L1587.13,882.611L1527.73,940.164L1380.39,940.164L1261.61,940.164L958.016,940.164" style="fill:none;stroke:black;stroke-width:4.17px;"/>
        </g>
    </g>
    <g transform="matrix(1.45631,0,0,2.07328,-632.611,-374.509)">
        <rect x="1483.44" y="338.421" width="81.563" height="87.494" style="fill:rgb(146,146,146);stroke:black;stroke-width:0.56px;"/>
    </g>
    <g transform="matrix(1,0,0,1,3.51575,35.6644)">
        <rect x="1524.22" y="848" width="118.782" height="113" style="fill:rgb(146,146,146);stroke:black;stroke-width:1px;"/>
    </g>
    <g transform="matrix(1,0,0,1,-262.605,35.6644)">
        <rect x="1524.22" y="848" width="118.782" height="113" style="fill:rgb(146,146,146);stroke:black;stroke-width:1px;"/>
    </g>
    <g transform="matrix(1,0,0,1,-694.984,35.6644)">
        <rect x="1524.22" y="848" width="118.782" height="113" style="fill:rgb(146,146,146);stroke:black;stroke-width:1px;"/>
    </g>
    <g transform="matrix(1.91291,0,0,1,-2438.39,35.6644)">
        <rect x="1524.22" y="848" width="118.782" height="113" style="fill:rgb(146,146,146);stroke:black;stroke-width:0.66px;"/>
    </g>
    <g transform="matrix(1,0,0,1,-460.72,-78.389)">
        <rect x="1524.22" y="848" width="118.782" height="113" style="fill:rgb(146,146,146);stroke:black;stroke-width:1px;"/>
    </g>
    <g transform="matrix(1,0,0,1,3.51575,35.6644)">
        <path d="M1500,532.337L1560.5,532.337L1560.5,555.593L1478,555.593L1478,425.916L1500,425.916L1500,532.337ZM1643,232L1500,232L1500,338.421L1478,338.421L1478,208.744L1643,208.744L1643,232Z" style="stroke:black;stroke-width:1px;"/>
    </g>
    <g transform="matrix(1,0,0,1,3.51575,35.6644)">
        <g transform="matrix(1,-0,-0,1,-3.51575,-35.6644)">
            <path d="M1116.64,626.493L1122.89,613.993L1129.14,626.493L1116.64,626.493Z"/>
            <path d="M1122.89,940.164L1122.89,623.993" style="fill:none;stroke:black;stroke-width:4.17px;"/>
        </g>
    </g>
    <g transform="matrix(1,0,0,1,3.51575,35.6644)">
        <g transform="matrix(1,-0,-0,1,-3.51575,-35.6644)">
            <path d="M584.657,797.164L590.907,784.664L597.157,797.164L584.657,797.164Z"/>
            <path d="M590.907,882.611L590.907,794.664" style="fill:none;stroke:black;stroke-width:4.17px;"/>
        </g>
    </g>
    <g transform="matrix(1,0,0,1,73.1249,35.6644)">
        <g transform="matrix(1,-0,-0,1,-73.1249,-35.6644)">
            <path d="M654.266,797.164L660.516,784.664L666.766,797.164L654.266,797.164Z"/>
            <path d="M660.516,882.611L660.516,794.664" style="fill:none;stroke:black;stroke-width:4.17px;"/>
        </g>
    </g>
    <g transform="matrix(1,0,0,1,-66.0934,35.6644)">
        <g transform="matrix(1,-0,-0,1,66.0934,-35.6644)">
            <path d="M515.047,797.164L521.297,784.664L527.547,797.164L515.047,797.164Z"/>
            <path d="M521.297,882.611L521.297,794.664" style="fill:none;stroke:black;stroke-width:4.17px;"/>
        </g>
    </g>
    <g transform="matrix(1,0,0,1,7,-34.2867)">
        <text x="161.625px" y="577.927px" style="font-family:'ArialMT', 'Arial', sans-serif;font-size:50px;">1</text>
    </g>
    <text x="1171.22px" y="654.783px" style="font-family:'ArialMT', 'Arial', sans-serif;font-size:50px;">3</text>
    <g transform="matrix(1,0,0,1,0.0252824,2.2444)">
        <text x="1367.36px" y="653.625px" style="font-family:'ArialMT', 'Arial', sans-serif;font-size:50px;">4</text>
    </g>
    <text x="1509.69px" y="651.311px" style="font-family:'ArialMT', 'Arial', sans-serif;font-size:50px;">5</text>
    <g transform="matrix(1,0,0,1,6.46202,-3.47584)">
        <text x="1566.97px" y="438.972px" style="font-family:'ArialMT', 'Arial', sans-serif;font-size:50px;">6</text>
    </g>
    <text x="1307.18px" y="948.123px" style="font-family:'ArialMT', 'Arial', sans-serif;font-size:50px;">7</text>
    <text x="1196.67px" y="830.671px" style="font-family:'ArialMT', 'Arial', sans-serif;font-size:50px;">8</text>
    <text x="1577.38px" y="962.008px" style="font-family:'ArialMT', 'Arial', sans-serif;font-size:50px;">9</text>
    <text x="861.66px" y="964.323px" style="font-family:'ArialMT', 'Arial', sans-serif;font-size:50px;">10</text>
    <text x="560.339px" y="964.323px" style="font-family:'ArialMT', 'Arial', sans-serif;font-size:50px;">1<tspan x="584.436px " y="964.323px ">1</tspan></text>
</svg>
