<svg xmlns="http://www.w3.org/2000/svg" viewBox="0 0 119.64 169.83"><defs><style>.cls-1{fill:#fff;}.cls-1,.cls-2,.cls-4,.cls-5{stroke:#201600;stroke-miterlimit:10;}.cls-2,.cls-4{fill:none;}.cls-3,.cls-5,.cls-6,.cls-7{fill:#201600;}.cls-4{stroke-width:2px;}.cls-6,.cls-7{font-size:12px;}.cls-6{font-family:TimesNewRomanPS-ItalicMT, Times New Roman;font-style:italic;}.cls-7{font-family:TimesNewRomanPSMT, Times New Roman;}.cls-8{letter-spacing:0.01em;}</style></defs><title>Ресурс 1</title><g id="Слой_2" data-name="Слой 2"><g id="Слой_1-2" data-name="Слой 1"><rect class="cls-1" x="0.5" y="20.33" width="14.17" height="42.52"/><rect class="cls-1" x="53.5" y="21.22" width="14.17" height="42.52"/><line class="cls-2" x1="60.59" y1="21.22" x2="60.59" y2="2.45"/><polyline class="cls-2" points="109.69 2.45 7.59 2.45 7.59 20.34"/><polyline class="cls-2" points="49.45 99.92 60.59 88.78 60.59 63.74"/><line class="cls-2" x1="49.45" y1="99.92" x2="49.45" y2="113.86"/><line class="cls-2" x1="49.45" y1="113.86" x2="56.88" y2="121.29"/><polygon class="cls-3" points="50.45 119.36 50.87 118.45 56.81 121.22 54.04 115.28 54.95 114.86 58.88 123.29 50.45 119.36"/><line class="cls-4" x1="49.45" y1="88.78" x2="49.45" y2="123.29"/><polyline class="cls-2" points="7.59 62.85 7.59 106.03 49.45 106.03"/><circle class="cls-2" cx="55.02" cy="106.04" r="22.57"/><line class="cls-2" x1="7.59" y1="154.37" x2="109.68" y2="154.37"/><line class="cls-2" x1="60.59" y1="74.31" x2="109.68" y2="74.31"/><circle class="cls-5" cx="58.87" cy="154.37" r="1.95"/><circle class="cls-5" cx="60.59" cy="74.31" r="1.95"/><circle class="cls-5" cx="60.59" cy="2.45" r="1.95"/><polyline class="cls-2" points="58.88 169.33 58.88 154.37 58.88 123.29"/><line class="cls-2" x1="50.08" y1="169.33" x2="67.67" y2="169.33"/><line class="cls-2" x1="7.59" y1="113.86" x2="7.59" y2="141.68"/><path class="cls-3" d="M7.59,139.89l3.6-2.19.08.12L8.94,143.7l-1.35,6.14L6.24,143.7,3.9,137.82,4,137.7Z"/><line class="cls-2" x1="93.7" y1="81.83" x2="93.7" y2="141.68"/><path class="cls-3" d="M93.7,139.89l3.61-2.19.08.12-2.34,5.88-1.35,6.14-1.35-6.14L90,137.82l.06-.12Z"/><text class="cls-6" transform="translate(97.83 116.84)">U</text><text class="cls-7" transform="translate(106.49 120.84) scale(0.58)"><tspan class="cls-8">К</tspan><tspan x="8.15" y="0">Э</tspan></text><text class="cls-6" transform="translate(11.47 133.73)">U</text><text class="cls-7" transform="translate(20.14 137.73) scale(0.58)">БЭ</text><text class="cls-6" transform="translate(19.44 45.46)">R</text><text class="cls-7" transform="translate(26.77 49.45) scale(0.58)">Б</text><text class="cls-6" transform="translate(73.74 45.46)">R</text><text class="cls-7" transform="translate(81.07 49.45) scale(0.58)">К</text><text class="cls-6" transform="translate(97.83 16.43)">+U</text><text class="cls-7" transform="translate(114.59 20.42) scale(0.58)">П</text></g></g></svg>