<svg xmlns="http://www.w3.org/2000/svg" viewBox="0 0 218.72 169.83"><defs><style>.cls-1{fill:#fff;}.cls-1,.cls-2,.cls-4,.cls-5{stroke:#201600;stroke-miterlimit:10;}.cls-2,.cls-4{fill:none;}.cls-3,.cls-5,.cls-6,.cls-7,.cls-8{fill:#201600;}.cls-4{stroke-width:2px;}.cls-6,.cls-7,.cls-8{font-size:12px;}.cls-6{font-family:TimesNewRomanPS-ItalicMT, Times New Roman;font-style:italic;}.cls-7,.cls-8{font-family:TimesNewRomanPSMT, Times New Roman;}.cls-8{letter-spacing:-0.04em;}</style></defs><title>Ресурс 3</title><g id="Слой_2" data-name="Слой 2"><g id="Слой_1-2" data-name="Слой 1"><rect class="cls-1" x="78.01" y="20.33" width="14.17" height="42.52"/><rect class="cls-1" x="131.01" y="21.22" width="14.17" height="42.52"/><line class="cls-2" x1="138.09" y1="21.22" x2="138.09" y2="2.45"/><polyline class="cls-2" points="193.66 2.45 85.09 2.45 85.09 20.34"/><polyline class="cls-2" points="126.95 99.92 138.09 88.78 138.09 63.74"/><line class="cls-2" x1="126.95" y1="99.92" x2="126.95" y2="113.86"/><line class="cls-2" x1="126.95" y1="113.86" x2="134.38" y2="121.29"/><polygon class="cls-3" points="127.95 119.36 128.38 118.45 134.31 121.22 131.55 115.28 132.45 114.86 136.38 123.29 127.95 119.36"/><line class="cls-4" x1="126.95" y1="88.78" x2="126.95" y2="123.29"/><polyline class="cls-2" points="85.09 62.85 85.09 106.03 126.95 106.03"/><circle class="cls-2" cx="132.52" cy="106.04" r="22.57"/><line class="cls-2" y1="154.37" x2="192.36" y2="154.37"/><line class="cls-2" x1="138.09" y1="74.31" x2="160.41" y2="74.31"/><circle class="cls-5" cx="136.38" cy="154.37" r="1.95"/><circle class="cls-5" cx="138.09" cy="74.31" r="1.95"/><circle class="cls-5" cx="138.09" cy="2.45" r="1.95"/><polyline class="cls-2" points="136.38 169.33 136.38 154.37 136.38 123.29"/><line class="cls-2" x1="127.58" y1="169.33" x2="145.18" y2="169.33"/><line class="cls-2" x1="85.09" y1="113.86" x2="85.09" y2="141.68"/><path class="cls-3" d="M85.09,139.89l3.61-2.19.08.12-2.34,5.88-1.35,6.14-1.35-6.14-2.33-5.88.06-.12Z"/><line class="cls-2" x1="194.42" y1="80.87" x2="194.42" y2="140.72"/><path class="cls-3" d="M194.42,138.92l3.61-2.19.08.12-2.34,5.88-1.35,6.14-1.35-6.14-2.33-5.88.06-.12Z"/><text class="cls-6" transform="translate(198.55 115.87)">U</text><text class="cls-7" transform="translate(207.21 119.87) scale(0.58)">вых</text><text class="cls-6" transform="translate(88.98 133.73)">U</text><text class="cls-7" transform="translate(97.64 137.73) scale(0.58)">вх</text><text class="cls-6" transform="translate(96.95 45.46)">R</text><text class="cls-7" transform="translate(104.28 49.45) scale(0.58)">Б</text><text class="cls-6" transform="translate(151.24 45.46)">R</text><text class="cls-7" transform="translate(158.58 49.45) scale(0.58)">К</text><text class="cls-6" transform="translate(175.33 16.43)">+U</text><text class="cls-7" transform="translate(192.1 20.42) scale(0.58)">П</text><line class="cls-2" x1="85.09" y1="106.04" x2="69.65" y2="106.04"/><line class="cls-2" x1="69.65" y1="93.5" x2="69.65" y2="118.57"/><line class="cls-2" x1="65.26" y1="93.5" x2="65.26" y2="118.57"/><rect class="cls-1" x="23.19" y="84.78" width="14.17" height="42.52" transform="translate(136.32 75.75) rotate(90)"/><line class="cls-2" x1="65.26" y1="106.04" x2="51.54" y2="106.04"/><line class="cls-2" x1="9.02" y1="106.04" y2="106.04"/><text class="cls-6" transform="translate(28.5 93.5)">R</text><text class="cls-7" transform="translate(35.83 97.49) scale(0.58)">и</text><text class="cls-6" transform="translate(62.88 88.78)">C</text><text class="cls-7" transform="translate(70.89 92.78) scale(0.58)">Б</text><line class="cls-2" x1="164.79" y1="61.77" x2="164.79" y2="86.85"/><line class="cls-2" x1="160.41" y1="61.77" x2="160.41" y2="86.85"/><text class="cls-6" transform="translate(176.71 60.4)">C</text><text class="cls-8" transform="translate(184.71 64.39) scale(0.58)">P</text><text class="cls-7" transform="translate(151.24 72.36)">+</text><line class="cls-2" x1="164.79" y1="74.31" x2="193.66" y2="74.31"/><rect class="cls-1" x="168.91" y="92.6" width="14.17" height="42.52"/><line class="cls-2" x1="175.99" y1="92.6" x2="175.99" y2="74.31"/><line class="cls-2" x1="175.99" y1="135.12" x2="175.99" y2="154.37"/><text class="cls-6" transform="translate(155.09 118.57)">R</text><text class="cls-7" transform="translate(162.42 122.57) scale(0.58)">Н</text><circle class="cls-5" cx="175.99" cy="74.31" r="1.95"/><circle class="cls-5" cx="175.99" cy="154.37" r="1.95"/></g></g></svg>